<svg width="1280" height="720" xmlns="http://www.w3.org/2000/svg" xmlns:xlink="http://www.w3.org/1999/xlink" overflow="hidden"><defs><linearGradient x1="198.302" y1="-166.395" x2="1081.7" y2="886.395" gradientUnits="userSpaceOnUse" spreadMethod="reflect" id="fill0"><stop offset="0" stop-color="#121441"/><stop offset="0.13" stop-color="#121441"/><stop offset="0.49" stop-color="#A43FA6"/><stop offset="0.51" stop-color="#A43FA6"/><stop offset="0.89" stop-color="#121441"/><stop offset="1" stop-color="#121441"/></linearGradient></defs><g><rect x="0" y="0" width="1280" height="720" fill="url(#fill0)"/><path d="M209 120.662C209 93.7868 230.787 72 257.662 72L1046.34 72C1073.21 72 1095 93.7868 1095 120.662L1095 648.338C1095 675.213 1073.21 697 1046.34 697L257.662 697C230.787 697 209 675.213 209 648.338Z" fill="#121441" fill-rule="evenodd" fill-opacity="0.501961"/><path d="M124 243.5 124 473.5C124 484.822 114.822 494 103.5 494L1 494 1 223 103.5 223C114.822 223 124 232.178 124 243.5Z" fill="#121441" fill-rule="evenodd" fill-opacity="0.501961"/><path d="M1152 515.666 1152 244.334C1152 232.551 1161.55 223 1173.33 223L1280 223 1280 537 1173.33 537C1161.55 537 1152 527.449 1152 515.666Z" fill="#121441" fill-rule="evenodd" fill-opacity="0.501961"/></g></svg>