<svg width="1280" height="720" xmlns="http://www.w3.org/2000/svg" xmlns:xlink="http://www.w3.org/1999/xlink" overflow="hidden"><defs><linearGradient x1="198.302" y1="-166.395" x2="1081.7" y2="886.395" gradientUnits="userSpaceOnUse" spreadMethod="reflect" id="fill0"><stop offset="0" stop-color="#121441"/><stop offset="0.13" stop-color="#121441"/><stop offset="0.49" stop-color="#A43FA6"/><stop offset="0.51" stop-color="#A43FA6"/><stop offset="0.89" stop-color="#121441"/><stop offset="1" stop-color="#121441"/></linearGradient></defs><g><rect x="0" y="0" width="1280" height="720" fill="url(#fill0)"/><path d="M21 34.4089C21 22.0328 31.0328 12 43.4089 12L1245.59 12C1257.97 12 1268 22.0328 1268 34.4089L1268 182.591C1268 194.967 1257.97 205 1245.59 205L43.4089 205C31.0328 205 21 194.967 21 182.591Z" fill="#121441" fill-rule="evenodd" fill-opacity="0.501961"/><text fill="#FFFFFF" font-family="Aptos,Aptos_MSFontService,sans-serif" font-weight="700" font-size="53" transform="translate(507.667 125)">Main</text><text fill="#FFFFFF" font-family="Aptos,Aptos_MSFontService,sans-serif" font-weight="700" font-size="53" transform="translate(637 125)">Menu</text><path d="M513 258.477C513 247.168 522.168 238 533.477 238L755.523 238C766.832 238 776 247.168 776 258.477L776 640.523C776 651.832 766.832 661 755.523 661L533.477 661C522.168 661 513 651.832 513 640.523Z" fill="#121441" fill-rule="evenodd" fill-opacity="0.501961"/></g></svg>