<svg width="1280" height="720" xmlns="http://www.w3.org/2000/svg" xmlns:xlink="http://www.w3.org/1999/xlink" overflow="hidden"><defs><linearGradient x1="198.302" y1="-166.395" x2="1081.7" y2="886.395" gradientUnits="userSpaceOnUse" spreadMethod="reflect" id="fill0"><stop offset="0" stop-color="#121441"/><stop offset="0.13" stop-color="#121441"/><stop offset="0.49" stop-color="#A43FA6"/><stop offset="0.51" stop-color="#A43FA6"/><stop offset="0.89" stop-color="#121441"/><stop offset="1" stop-color="#121441"/></linearGradient></defs><g><rect x="0" y="0" width="1280" height="720" fill="url(#fill0)"/><path d="M234 169.672C234 149.419 250.418 133 270.672 133L1072.33 133C1092.58 133 1109 149.419 1109 169.672L1109 567.328C1109 587.581 1092.58 604 1072.33 604L270.672 604C250.418 604 234 587.581 234 567.328Z" fill="#121441" fill-rule="evenodd" fill-opacity="0.501961"/><path d="M124 243.5 124 473.5C124 484.822 114.822 494 103.5 494L1 494 1 223 103.5 223C114.822 223 124 232.178 124 243.5Z" fill="#121441" fill-rule="evenodd" fill-opacity="0.501961"/><path d="M1173 632.166 1173 84.8337C1173 74.9844 1180.98 67.0001 1190.83 67.0001L1280 67.0001 1280 650 1190.83 650C1180.98 650 1173 642.016 1173 632.166Z" fill="#121441" fill-rule="evenodd" fill-opacity="0.501961"/></g></svg>