<svg width="1280" height="720" xmlns="http://www.w3.org/2000/svg" xmlns:xlink="http://www.w3.org/1999/xlink" overflow="hidden"><defs><linearGradient x1="198.302" y1="-166.395" x2="1081.7" y2="886.395" gradientUnits="userSpaceOnUse" spreadMethod="reflect" id="fill0"><stop offset="0" stop-color="#121441"/><stop offset="0.13" stop-color="#121441"/><stop offset="0.49" stop-color="#A43FA6"/><stop offset="0.51" stop-color="#A43FA6"/><stop offset="0.89" stop-color="#121441"/><stop offset="1" stop-color="#121441"/></linearGradient></defs><g><rect x="0" y="0" width="1280" height="720" fill="url(#fill0)"/><path d="M124 243.5 124 473.5C124 484.822 114.822 494 103.5 494L1 494 1 223 103.5 223C114.822 223 124 232.178 124 243.5Z" fill="#121441" fill-rule="evenodd" fill-opacity="0.501961"/><path d="M1173 632.166 1173 84.8337C1173 74.9844 1180.98 67.0001 1190.83 67.0001L1280 67.0001 1280 650 1190.83 650C1180.98 650 1173 642.016 1173 632.166Z" fill="#121441" fill-rule="evenodd" fill-opacity="0.501961"/><path d="M269 641 1045 641C1052.18 641 1058 646.82 1058 654L1058 719 256 719 256 654C256 646.82 261.82 641 269 641Z" fill="#121441" fill-rule="evenodd" fill-opacity="0.501961"/><path d="M211 161.345C211 145.138 224.138 132 240.345 132L1115.66 132C1131.86 132 1145 145.138 1145 161.345L1145 575.655C1145 591.862 1131.86 605 1115.66 605L240.345 605C224.138 605 211 591.862 211 575.655Z" fill="#121441" fill-rule="evenodd" fill-opacity="0.501961"/></g></svg>