<svg width="1280" height="720" xmlns="http://www.w3.org/2000/svg" xmlns:xlink="http://www.w3.org/1999/xlink" overflow="hidden"><defs><linearGradient x1="198.302" y1="-166.395" x2="1081.7" y2="886.395" gradientUnits="userSpaceOnUse" spreadMethod="reflect" id="fill0"><stop offset="0" stop-color="#121441"/><stop offset="0.13" stop-color="#121441"/><stop offset="0.49" stop-color="#A43FA6"/><stop offset="0.51" stop-color="#A43FA6"/><stop offset="0.89" stop-color="#121441"/><stop offset="1" stop-color="#121441"/></linearGradient></defs><g><rect x="0" y="0" width="1280" height="720" fill="url(#fill0)"/><path d="M172 260.054C172 243.456 185.456 230 202.054 230L527.946 230C544.544 230 558 243.456 558 260.054L558 679.946C558 696.544 544.544 710 527.946 710L202.054 710C185.456 710 172 696.544 172 679.946Z" fill="#121441" fill-rule="evenodd" fill-opacity="0.501961"/><path d="M21 34.4089C21 22.0328 31.0328 12 43.4089 12L1245.59 12C1257.97 12 1268 22.0328 1268 34.4089L1268 182.591C1268 194.967 1257.97 205 1245.59 205L43.4089 205C31.0328 205 21 194.967 21 182.591Z" fill="#121441" fill-rule="evenodd" fill-opacity="0.501961"/><path d="M124 243.5 124 473.5C124 484.822 114.822 494 103.5 494L1 494 1 223 103.5 223C114.822 223 124 232.178 124 243.5Z" fill="#121441" fill-rule="evenodd" fill-opacity="0.501961"/><text fill="#FFFFFF" font-family="Aptos,Aptos_MSFontService,sans-serif" font-weight="700" font-size="53" transform="translate(118.93 93)">2024 Italian</text><text fill="#FFFFFF" font-family="Aptos,Aptos_MSFontService,sans-serif" font-weight="700" font-size="53" transform="translate(133.11 157)">Grand Prix</text><g><g><g><path d="M56.25 37.4999C55.5597 37.4999 55.0013 36.9396 55.0013 36.2493L55.0013 33.7501C55.0013 33.0597 55.5598 32.4994 56.25 32.4994 56.9403 32.4994 57.4988 33.0597 57.4988 33.7501L57.4988 36.2493C57.4988 36.9396 56.9404 37.4999 56.25 37.4999Z" fill="#E6E9ED" transform="matrix(1.08333 0 0 1 226 156)"/><path d="M58.7512 38.7506 53.7487 38.7506C53.0603 38.7506 52.5 38.1903 52.5 37.4999 52.5 36.8095 53.0603 36.2493 53.7487 36.2493L58.7512 36.2493C59.4397 36.2493 60 36.8095 60 37.4999 60 38.1903 59.4397 38.7506 58.7512 38.7506Z" fill="#E6E9ED" transform="matrix(1.08333 0 0 1 226 156)"/><path d="M36.2513 30C35.5591 30 34.9987 29.4397 34.9987 28.7493L34.9987 27.5006C34.9987 26.8102 35.559 26.2499 36.2513 26.2499 36.9397 26.2499 37.4999 26.8102 37.4999 27.5006L37.4999 28.7493C37.4999 29.4397 36.9397 30 36.2513 30Z" fill="#E6E9ED" transform="matrix(1.08333 0 0 1 226 156)"/><path d="M27.4998 24.9994C26.8094 24.9994 26.25 24.4409 26.25 23.7506L26.25 22.5C26.25 21.8096 26.8094 21.2493 27.4998 21.2493 28.19 21.2493 28.7503 21.8096 28.7503 22.5L28.7503 23.7506C28.7503 24.4409 28.19 24.9994 27.4998 24.9994Z" fill="#E6E9ED" transform="matrix(1.08333 0 0 1 226 156)"/><path d="M57.4402 29.7877C56.2793 29.0918 54.7009 28.5406 52.7454 28.1489 49.5354 27.508 46.3824 27.5007 46.2487 27.5007 45.5603 27.5007 45.0001 28.0592 45.0001 28.7495L45.0001 33.7501C45.0001 34.4404 45.5603 35.0007 46.2487 35.0007L58.7512 35.0007C59.4397 35.0007 60 34.4404 60 33.7501 60 32.6423 59.5569 31.0566 57.4402 29.7877Z" fill="#ED5564" transform="matrix(1.08333 0 0 1 226 156)"/><path d="M46.2487 27.5006 30 27.5006 30 23.7506C30 23.0603 29.4407 22.5 28.7503 22.5 15.9247 22.5 9.7339 27.832 9.47667 28.0591 9.26702 28.2459 9.1251 28.4967 9.07471 28.7714L7.52007 37.2747C7.45327 37.6409 7.55206 38.0162 7.79019 38.3001 8.02727 38.5858 8.37884 38.7506 8.74974 38.7506L36.2513 38.7506C36.5204 38.7506 36.7822 38.6627 37.0002 38.4997L42.0008 34.7498C42.552 34.336 42.6636 33.5523 42.2498 32.9992 41.9386 32.5836 41.4167 32.4188 40.9425 32.5377L46.2487 30C46.9408 30 47.5012 29.4397 47.5012 28.7493 47.5012 28.059 46.941 27.5006 46.2487 27.5006Z" fill="#ED5564" transform="matrix(1.08333 0 0 1 226 156)"/><path d="M30 27.5006 30 23.7506C30 23.0603 29.4407 22.5 28.7503 22.5 15.9247 22.5 9.7339 27.832 9.47667 28.0591 9.26702 28.2459 9.1251 28.4967 9.07471 28.7714L7.52007 37.2747C7.45327 37.6409 7.55206 38.0162 7.79019 38.3001 8.02727 38.5858 9.08115 29.4544 9.45194 29.4544L30 27.5006Z" fill="#DA4453" transform="matrix(1.08333 0 0 1 226 156)"/><path d="M3.90746 33.7501 1.24971 33.7501C0.559347 33.7501 0 33.1898 0 32.4994L0 21.2494C0 20.5591 0.559347 20.0007 1.24971 20.0007L11.25 20.0007C11.9404 20.0007 12.4997 20.5592 12.4997 21.2494L12.4997 23.7507C12.4997 24.0437 12.3962 24.3293 12.2077 24.5527L4.86513 33.3033C4.62794 33.5871 4.27731 33.7501 3.90746 33.7501Z" fill="#E6E9ED" transform="matrix(1.08333 0 0 1 226 156)"/><path d="M8.74962 27.5006C5.30354 27.5006 2.50024 30.3039 2.50024 33.7501 2.50024 37.1959 5.30354 39.9993 8.74962 39.9993 12.1966 39.9993 14.9999 37.1959 14.9999 33.7501 14.9999 30.304 12.1966 27.5006 8.74962 27.5006Z" fill="#434A54" transform="matrix(1.08333 0 0 1 226 156)"/><path d="M9.63406 34.6345C9.14608 35.1215 8.35411 35.1215 7.86613 34.6345 7.37815 34.1456 7.37815 33.3546 7.86613 32.8656 8.35411 32.3786 9.14608 32.3786 9.63406 32.8656 10.122 33.3546 10.122 34.1456 9.63406 34.6345Z" fill="#F5F7FA" transform="matrix(1.08333 0 0 1 226 156)"/><path d="M33.1243 27.5003 34.3767 27.5003 34.3767 38.7506 33.1243 38.7506Z" fill="#DA4453" transform="matrix(1.08333 0 0 1 226 156)"/><path d="M27.4998 35.0007 19.9997 35.0007C19.3094 35.0007 18.75 34.4404 18.75 33.7501 18.75 33.0597 19.3094 32.4994 19.9997 32.4994L27.4998 32.4994C28.19 32.4994 28.7503 33.0597 28.7503 33.7501 28.7503 34.4404 28.19 35.0007 27.4998 35.0007Z" fill="#DA4453" transform="matrix(1.08333 0 0 1 226 156)"/><path d="M46.2487 27.5006C42.8027 27.5006 40.0011 30.3039 40.0011 33.7501 40.0011 37.1959 42.8026 39.9993 46.2487 39.9993 49.6966 39.9993 52.5 37.1959 52.5 33.7501 52.5 30.304 49.6966 27.5006 46.2487 27.5006Z" fill="#434A54" transform="matrix(1.08333 0 0 1 226 156)"/><path d="M47.135 34.6345C46.6461 35.1215 45.8533 35.1215 45.3663 34.6345 44.8792 34.1456 44.8792 33.3546 45.3663 32.8656 45.8533 32.3786 46.6461 32.3786 47.135 32.8656 47.6221 33.3546 47.6221 34.1456 47.135 34.6345Z" fill="#F5F7FA" transform="matrix(1.08333 0 0 1 226 156)"/></g></g></g><path d="M586 485.764C586 475.401 594.401 467 604.764 467L830.236 467C840.599 467 849 475.401 849 485.764L849 689.236C849 699.599 840.599 708 830.236 708L604.764 708C594.401 708 586 699.599 586 689.236Z" fill="#121441" fill-rule="evenodd" fill-opacity="0.501961"/><path d="M876 258.054C876 241.456 889.456 228 906.054 228L1231.95 228C1248.54 228 1262 241.456 1262 258.054L1262 677.946C1262 694.544 1248.54 708 1231.95 708L906.054 708C889.456 708 876 694.544 876 677.946Z" fill="#121441" fill-rule="evenodd" fill-opacity="0.501961"/><path d="M582 246.896C582 237.564 589.564 230 598.896 230L829.104 230C838.436 230 846 237.564 846 246.896L846 430.104C846 439.436 838.436 447 829.104 447L598.896 447C589.564 447 582 439.436 582 430.104Z" fill="#121441" fill-rule="evenodd" fill-opacity="0.501961"/></g></svg>