<svg width="1280" height="720" xmlns="http://www.w3.org/2000/svg" xmlns:xlink="http://www.w3.org/1999/xlink" overflow="hidden"><defs><linearGradient x1="198.302" y1="-166.395" x2="1081.7" y2="886.395" gradientUnits="userSpaceOnUse" spreadMethod="reflect" id="fill0"><stop offset="0" stop-color="#121441"/><stop offset="0.13" stop-color="#121441"/><stop offset="0.49" stop-color="#A43FA6"/><stop offset="0.51" stop-color="#A43FA6"/><stop offset="0.89" stop-color="#121441"/><stop offset="1" stop-color="#121441"/></linearGradient></defs><g><rect x="0" y="0" width="1280" height="720" fill="url(#fill0)"/><path d="M815 171.087C815 159.993 823.993 151 835.087 151L1238.91 151C1250.01 151 1259 159.993 1259 171.087L1259 303.913C1259 315.007 1250.01 324 1238.91 324L835.087 324C823.993 324 815 315.007 815 303.913Z" fill="#121441" fill-rule="evenodd" fill-opacity="0.501961"/><path d="M218 201.799C218 179.266 236.266 161 258.799 161L764.201 161C786.734 161 805 179.266 805 201.799L805 644.201C805 666.734 786.734 685 764.201 685L258.799 685C236.266 685 218 666.734 218 644.201Z" fill="#121441" fill-rule="evenodd" fill-opacity="0.501961"/><path d="M815 356.971C815 345.941 823.941 337 834.971 337L1239.03 337C1250.06 337 1259 345.941 1259 356.971L1259 489.029C1259 500.059 1250.06 509 1239.03 509L834.971 509C823.941 509 815 500.059 815 489.029Z" fill="#121441" fill-rule="evenodd" fill-opacity="0.501961"/><path d="M815 548.087C815 536.993 823.993 528 835.087 528L1238.91 528C1250.01 528 1259 536.993 1259 548.087L1259 680.913C1259 692.007 1250.01 701 1238.91 701L835.087 701C823.993 701 815 692.007 815 680.913Z" fill="#121441" fill-rule="evenodd" fill-opacity="0.501961"/><path d="M21 25.933C21 18.238 27.238 12 34.9329 12L1245.07 12C1252.76 12 1259 18.238 1259 25.933L1259 118.067C1259 125.762 1252.76 132 1245.07 132L34.9329 132C27.238 132 21 125.762 21 118.067Z" fill="#121441" fill-rule="evenodd" fill-opacity="0.501961"/><path d="M124 243.5 124 473.5C124 484.822 114.822 494 103.5 494L1 494 1 223 103.5 223C114.822 223 124 232.178 124 243.5Z" fill="#121441" fill-rule="evenodd" fill-opacity="0.501961"/><text fill="#FFFFFF" font-family="Aptos,Aptos_MSFontService,sans-serif" font-weight="400" font-size="32" transform="translate(113.455 63)">Qualifying for</text><text fill="#FFFFFF" font-family="Aptos,Aptos_MSFontService,sans-serif" font-weight="700" font-size="32" transform="translate(43.0688 101)">2024 Italian Grand Prix</text><g><g><g><path d="M55.3125 36.8749C54.6337 36.8749 54.0846 36.324 54.0846 35.6451L54.0846 33.1876C54.0846 32.5087 54.6338 31.9578 55.3125 31.9578 55.9913 31.9578 56.5405 32.5087 56.5405 33.1876L56.5405 35.6451C56.5405 36.324 55.9914 36.8749 55.3125 36.8749Z" fill="#E6E9ED" transform="matrix(1.10169 0 0 1 37 21)"/><path d="M57.772 38.1047 52.8529 38.1047C52.1759 38.1047 51.625 37.5538 51.625 36.8749 51.625 36.1961 52.1759 35.6451 52.8529 35.6451L57.772 35.6451C58.4491 35.6451 59 36.1961 59 36.8749 59 37.5538 58.4491 38.1047 57.772 38.1047Z" fill="#E6E9ED" transform="matrix(1.10169 0 0 1 37 21)"/><path d="M35.6471 29.5C34.9665 29.5 34.4154 28.9491 34.4154 28.2702L34.4154 27.0422C34.4154 26.3634 34.9664 25.8124 35.6471 25.8124 36.3241 25.8124 36.8749 26.3634 36.8749 27.0422L36.8749 28.2702C36.8749 28.9491 36.3241 29.5 35.6471 29.5Z" fill="#E6E9ED" transform="matrix(1.10169 0 0 1 37 21)"/><path d="M27.0414 24.5827C26.3626 24.5827 25.8125 24.0335 25.8125 23.3548L25.8125 22.125C25.8125 21.4461 26.3626 20.8952 27.0414 20.8952 27.7202 20.8952 28.2711 21.4461 28.2711 22.125L28.2711 23.3548C28.2711 24.0335 27.7202 24.5827 27.0414 24.5827Z" fill="#E6E9ED" transform="matrix(1.10169 0 0 1 37 21)"/><path d="M56.4829 29.2912C55.3414 28.6069 53.7892 28.065 51.8663 27.6797 48.7098 27.0495 45.6094 27.0423 45.4779 27.0423 44.801 27.0423 44.2501 27.5916 44.2501 28.2703L44.2501 33.1876C44.2501 33.8664 44.801 34.4174 45.4779 34.4174L57.772 34.4174C58.4491 34.4174 59 33.8664 59 33.1876 59 32.0982 58.5643 30.539 56.4829 29.2912Z" fill="#ED5564" transform="matrix(1.10169 0 0 1 37 21)"/><path d="M45.4779 27.0422 29.5 27.0422 29.5 23.3548C29.5 22.6759 28.95 22.125 28.2711 22.125 15.6593 22.125 9.57167 27.3681 9.31872 27.5915 9.11257 27.7751 8.97301 28.0217 8.92346 28.2919L7.39473 36.6534C7.32905 37.0135 7.42619 37.3826 7.66035 37.6618 7.89348 37.9427 8.23919 38.1047 8.60391 38.1047L35.6471 38.1047C35.9118 38.1047 36.1692 38.0183 36.3835 37.858L41.3008 34.1707C41.8428 33.7638 41.9526 32.9931 41.5457 32.4493 41.2396 32.0405 40.7265 31.8785 40.2601 31.9954L45.4779 29.5C46.1585 29.5 46.7096 28.9491 46.7096 28.2702 46.7096 27.5913 46.1586 27.0422 45.4779 27.0422Z" fill="#ED5564" transform="matrix(1.10169 0 0 1 37 21)"/><path d="M29.5 27.0422 29.5 23.3548C29.5 22.6759 28.95 22.125 28.2711 22.125 15.6593 22.125 9.57167 27.3681 9.31872 27.5915 9.11257 27.7751 8.97301 28.0217 8.92346 28.2919L7.39473 36.6534C7.32905 37.0135 7.42619 37.3826 7.66035 37.6618 7.89348 37.9427 8.9298 28.9635 9.29441 28.9635L29.5 27.0422Z" fill="#DA4453" transform="matrix(1.10169 0 0 1 37 21)"/><path d="M3.84233 33.1876 1.22888 33.1876C0.550024 33.1876 0 32.6366 0 31.9578L0 20.8953C0 20.2164 0.550024 19.6673 1.22888 19.6673L11.0625 19.6673C11.7413 19.6673 12.2914 20.2165 12.2914 20.8953L12.2914 23.3549C12.2914 23.643 12.1896 23.9238 12.0042 24.1435L4.78405 32.7483C4.55081 33.0273 4.20602 33.1876 3.84233 33.1876Z" fill="#E6E9ED" transform="matrix(1.10169 0 0 1 37 21)"/><path d="M8.6038 27.0422C5.21515 27.0422 2.45857 29.7988 2.45857 33.1876 2.45857 36.576 5.21515 39.3327 8.6038 39.3327 11.9934 39.3327 14.7499 36.576 14.7499 33.1876 14.7499 29.7989 11.9934 27.0422 8.6038 27.0422Z" fill="#434A54" transform="matrix(1.10169 0 0 1 37 21)"/><path d="M9.47349 34.0573C8.99364 34.5362 8.21487 34.5362 7.73503 34.0573 7.25518 33.5765 7.25518 32.7986 7.73503 32.3179 8.21487 31.839 8.99364 31.839 9.47349 32.3179 9.95333 32.7986 9.95333 33.5765 9.47349 34.0573Z" fill="#F5F7FA" transform="matrix(1.10169 0 0 1 37 21)"/><path d="M32.5722 27.042 33.8037 27.042 33.8037 38.1047 32.5722 38.1047Z" fill="#DA4453" transform="matrix(1.10169 0 0 1 37 21)"/><path d="M27.0414 34.4174 19.6664 34.4174C18.9875 34.4174 18.4375 33.8664 18.4375 33.1876 18.4375 32.5087 18.9875 31.9578 19.6664 31.9578L27.0414 31.9578C27.7202 31.9578 28.2711 32.5087 28.2711 33.1876 28.2711 33.8664 27.7202 34.4174 27.0414 34.4174Z" fill="#DA4453" transform="matrix(1.10169 0 0 1 37 21)"/><path d="M45.4779 27.0422C42.0894 27.0422 39.3344 29.7988 39.3344 33.1876 39.3344 36.576 42.0893 39.3327 45.4779 39.3327 48.8683 39.3327 51.625 36.576 51.625 33.1876 51.625 29.7989 48.8683 27.0422 45.4779 27.0422Z" fill="#434A54" transform="matrix(1.10169 0 0 1 37 21)"/><path d="M46.3494 34.0573C45.8687 34.5362 45.0891 34.5362 44.6102 34.0573 44.1312 33.5765 44.1312 32.7986 44.6102 32.3179 45.0891 31.839 45.8687 31.839 46.3494 32.3179 46.8284 32.7986 46.8284 33.5765 46.3494 34.0573Z" fill="#F5F7FA" transform="matrix(1.10169 0 0 1 37 21)"/></g></g></g></g></svg>